{
  "source": "C:\\Users\\Peter\\Desktop\\stuff\\MIUN\\quantitative_research\\video_compression\\videos\\BVI-HD\\BVI-HD_CDVL_videos\\ORIG\\Grass_1920x1080_60fps.mp4",
  "output": "C:\\Users\\Peter\\Desktop\\stuff\\MIUN\\quantitative_research\\video_compression\\compressed_videos\\BVI-HD\\av1\\1.5\\Grass_1920x1080_60fps_av1.mkv",
  "codec": "av1",
  "ok": "Input #0, mov,mp4,m4a,3gp,3g2,mj2, from 'C:\\Users\\Peter\\Desktop\\stuff\\MIUN\\quantitative_research\\video_compression\\videos\\BVI-HD\\BVI-HD_CDVL_videos\\ORIG\\Grass_1920x1080_60fps.mp4':\n  Metadata:\n    major_brand     : isom\n    minor_version   : 512\n    compatible_brands: isomiso2avc1mp41\n    encoder         : Lavf54.28.101\n  Duration: 00:00:05.00, start: 0.000000, bitrate: 655968 kb/s\n  Stream #0:0[0x1](und): Video: h264 (High 4:4:4 Predictive) (avc1 / 0x31637661), yuv420p(progressive), 1920x1080, 655963 kb/s, 60 fps, 60 tbr, 60 tbn (default)\n    Metadata:\n      handler_name    : VideoHandler\n      vendor_id       : [0][0][0][0]\n[out#0/matroska @ 0000024cfdbe90c0] Codec AVOption b:a (set bitrate (in bits/s)) has not been used for any stream. The most likely reason is either wrong type (e.g. a video option with no video streams) or that it is a private option of some decoder which was not actually used for any stream.\nStream mapping:\n  Stream #0:0 -> #0:0 (h264 (native) -> av1 (libsvtav1))\nPress [q] to stop, [?] for help\nSvt[info]: -------------------------------------------\nSvt[info]: SVT [version]:\tSVT-AV1 Encoder Lib v3.1.0-19-g6ecfe8ec\nSvt[info]: SVT [build]  :\tGCC 15.2.0\t 64 bit\nSvt[info]: LIB Build date: Aug 17 2025 11:37:13\nSvt[info]: -------------------------------------------\nSvt[info]: Level of Parallelism: 5\nSvt[info]: Number of PPCS 93\nSvt[info]: [asm level on system : up to avx2]\nSvt[info]: [asm level selected : up to avx2]\nSvt[info]: -------------------------------------------\nSvt[info]: SVT [config]: main profile\ttier (auto)\tlevel (auto)\nSvt[info]: SVT [config]: width / height / fps numerator / fps denominator \t\t: 1920 / 1080 / 60 / 1\nSvt[info]: SVT [config]: bit-depth / color format \t\t\t\t\t: 8 / YUV420\nSvt[info]: SVT [config]: preset / tune / pred struct \t\t\t\t\t: 4 / PSNR / random access\nSvt[info]: SVT [config]: gop size / mini-gop size / key-frame type \t\t\t: 321 / 16 / key frame\nSvt[info]: SVT [config]: BRC mode / target bitrate (kbps)\t\t\t\t: VBR / 1500 \nSvt[info]: SVT [config]: AQ mode / Variance Boost \t\t\t\t\t: 2 / 0\nSvt[info]: SVT [config]: sharpness / luminance-based QP bias \t\t\t\t: 0 / 0\nSvt[info]: SVT [config]: QP scale compress strength \t\t\t\t\t: 0\nSvt[info]: -------------------------------------------\nOutput #0, matroska, to 'C:\\Users\\Peter\\Desktop\\stuff\\MIUN\\quantitative_research\\video_compression\\compressed_videos\\BVI-HD\\av1\\1.5\\Grass_1920x1080_60fps_av1.mkv':\n  Metadata:\n    major_brand     : isom\n    minor_version   : 512\n    compatible_brands: isomiso2avc1mp41\n    encoder         : Lavf62.3.100\n  Stream #0:0(und): Video: av1 (AV01 / 0x31305641), yuv420p(tv, progressive), 1920x1080, q=2-31, 1500 kb/s, 60 fps, 1k tbn (default)\n    Metadata:\n      encoder         : Lavc62.11.100 libsvtav1\n      handler_name    : VideoHandler\n      vendor_id       : [0][0][0][0]\n    Side data:\n      cpb: bitrate max/min/avg: 0/0/1500000 buffer size: 1500000 vbv_delay: N/A\nframe=    0 fps=0.0 q=0.0 size=       0KiB time=N/A bitrate=N/A speed=N/A elapsed=0:00:01.04    \nframe=    0 fps=0.0 q=0.0 size=       0KiB time=N/A bitrate=N/A speed=N/A elapsed=0:00:01.59    \nframe=    0 fps=0.0 q=0.0 size=       0KiB time=N/A bitrate=N/A speed=N/A elapsed=0:00:02.13    \nframe=    0 fps=0.0 q=0.0 size=       0KiB time=N/A bitrate=N/A speed=N/A elapsed=0:00:02.69    \nframe=    0 fps=0.0 q=0.0 size=       0KiB time=N/A bitrate=N/A speed=N/A elapsed=0:00:03.25    \nframe=    0 fps=0.0 q=0.0 size=       0KiB time=N/A bitrate=N/A speed=N/A elapsed=0:00:03.77    \nframe=    0 fps=0.0 q=0.0 size=       0KiB time=N/A bitrate=N/A speed=N/A elapsed=0:00:04.30    \nframe=    1 fps=0.2 q=30.0 size=       1KiB time=00:00:00.00 bitrate=N/A speed=   0x elapsed=0:00:04.80    \nframe=    1 fps=0.2 q=30.0 size=       1KiB time=00:00:00.00 bitrate=N/A speed=   0x elapsed=0:00:05.34    \nframe=    6 fps=1.0 q=60.0 size=       1KiB time=00:00:00.08 bitrate=  68.4kbits/s speed=0.0142x elapsed=0:00:05.87    \nframe=   13 fps=2.0 q=56.0 size=       1KiB time=00:00:00.20 bitrate=  28.5kbits/s speed=0.0311x elapsed=0:00:06.43    \nframe=   13 fps=1.9 q=56.0 size=       1KiB time=00:00:00.20 bitrate=  28.5kbits/s speed=0.0286x elapsed=0:00:06.99    \nframe=   16 fps=2.1 q=59.0 size=       1KiB time=00:00:00.25 bitrate=  22.8kbits/s speed=0.0331x elapsed=0:00:07.54    \nframe=   26 fps=3.2 q=59.0 size=       1KiB time=00:00:00.41 bitrate=  13.7kbits/s speed=0.0516x elapsed=0:00:08.07    \nframe=   29 fps=3.4 q=56.0 size=       1KiB time=00:00:00.46 bitrate=  12.2kbits/s speed=0.054x elapsed=0:00:08.64    \nframe=   30 fps=3.3 q=59.0 size=       1KiB time=00:00:00.48 bitrate=  11.8kbits/s speed=0.0527x elapsed=0:00:09.16    \nframe=   38 fps=3.9 q=59.0 size=       1KiB time=00:00:00.61 bitrate=   9.2kbits/s speed=0.0637x elapsed=0:00:09.68    \nframe=   45 fps=4.4 q=56.0 size=       1KiB time=00:00:00.73 bitrate=   7.8kbits/s speed=0.0718x elapsed=0:00:10.21    \nframe=   45 fps=4.2 q=56.0 size=       1KiB time=00:00:00.73 bitrate=   7.8kbits/s speed=0.0679x elapsed=0:00:10.80    \nframe=   46 fps=4.1 q=59.0 size=       1KiB time=00:00:00.75 bitrate=   7.6kbits/s speed=0.0661x elapsed=0:00:11.35    \nframe=   52 fps=4.4 q=58.0 size=       1KiB time=00:00:00.85 bitrate=   6.7kbits/s speed=0.0716x elapsed=0:00:11.87    \nframe=   58 fps=4.7 q=58.0 size=       1KiB time=00:00:00.91 bitrate=   6.2kbits/s speed=0.0738x elapsed=0:00:12.42    \nframe=   61 fps=4.6 q=55.0 size=       1KiB time=00:00:01.00 bitrate=   5.7kbits/s speed=0.0762x elapsed=0:00:13.12    \nframe=   61 fps=4.4 q=55.0 size=       1KiB time=00:00:01.00 bitrate=   5.7kbits/s speed=0.0729x elapsed=0:00:13.71    \nframe=   61 fps=4.3 q=55.0 size=       1KiB time=00:00:01.00 bitrate=   5.7kbits/s speed=0.0702x elapsed=0:00:14.24    \nframe=   63 fps=4.3 q=57.0 size=       1KiB time=00:00:01.01 bitrate=   5.6kbits/s speed=0.0689x elapsed=0:00:14.75    \nframe=   68 fps=4.4 q=57.0 size=       1KiB time=00:00:01.10 bitrate=   5.2kbits/s speed=0.0716x elapsed=0:00:15.35    \nframe=   72 fps=4.5 q=57.0 size=       1KiB time=00:00:01.16 bitrate=   4.9kbits/s speed=0.073x elapsed=0:00:15.97    \nframe=   77 fps=4.6 q=54.0 size=       1KiB time=00:00:01.26 bitrate=   4.5kbits/s speed=0.0761x elapsed=0:00:16.64    \nframe=   77 fps=4.5 q=54.0 size=       1KiB time=00:00:01.26 bitrate=   4.5kbits/s speed=0.0735x elapsed=0:00:17.24    \nframe=   77 fps=4.3 q=54.0 size=       1KiB time=00:00:01.26 bitrate=   4.5kbits/s speed=0.0712x elapsed=0:00:17.78    \nframe=   78 fps=4.3 q=57.0 size=       1KiB time=00:00:01.28 bitrate=   4.4kbits/s speed=0.07x elapsed=0:00:18.33    \nframe=   86 fps=4.6 q=57.0 size=       1KiB time=00:00:01.41 bitrate=   4.0kbits/s speed=0.0751x elapsed=0:00:18.86    \nframe=   93 fps=4.8 q=54.0 size=       1KiB time=00:00:01.53 bitrate=   3.7kbits/s speed=0.079x elapsed=0:00:19.42    \nframe=   93 fps=4.7 q=54.0 size=       1KiB time=00:00:01.53 bitrate=   3.7kbits/s speed=0.0768x elapsed=0:00:19.96    \nframe=   95 fps=4.6 q=56.0 size=       1KiB time=00:00:01.56 bitrate=   3.6kbits/s speed=0.0764x elapsed=0:00:20.49    \nframe=  103 fps=4.9 q=56.0 size=       1KiB time=00:00:01.68 bitrate=   3.4kbits/s speed=0.0799x elapsed=0:00:21.05    \nframe=  109 fps=5.0 q=54.0 size=       1KiB time=00:00:01.80 bitrate=   3.2kbits/s speed=0.0831x elapsed=0:00:21.64    \nframe=  109 fps=4.9 q=54.0 size=       1KiB time=00:00:01.80 bitrate=   3.2kbits/s speed=0.0812x elapsed=0:00:22.16    \nframe=  115 fps=5.1 q=56.0 size=       1KiB time=00:00:01.90 bitrate=   3.0kbits/s speed=0.0837x elapsed=0:00:22.70    \nframe=  125 fps=5.4 q=54.0 size=       1KiB time=00:00:02.05 bitrate=   2.8kbits/s speed=0.0882x elapsed=0:00:23.23    \nframe=  125 fps=5.3 q=54.0 size=       1KiB time=00:00:02.06 bitrate=   2.8kbits/s speed=0.0868x elapsed=0:00:23.80    \nframe=  127 fps=5.2 q=56.0 size=       1KiB time=00:00:02.10 bitrate=   2.7kbits/s speed=0.0864x elapsed=0:00:24.31    \nframe=  135 fps=5.4 q=55.0 size=       1KiB time=00:00:02.23 bitrate=   2.6kbits/s speed=0.0899x elapsed=0:00:24.83    \nframe=  141 fps=5.6 q=53.0 size=       1KiB time=00:00:02.33 bitrate=   2.4kbits/s speed=0.092x elapsed=0:00:25.36    \nframe=  144 fps=5.6 q=56.0 size=       1KiB time=00:00:02.38 bitrate=   2.4kbits/s speed=0.0921x elapsed=0:00:25.88    \nframe=  154 fps=5.8 q=57.0 size=       1KiB time=00:00:02.51 bitrate=   2.3kbits/s speed=0.0953x elapsed=0:00:26.39    \nframe=  157 fps=5.8 q=54.0 size=       1KiB time=00:00:02.60 bitrate=   2.2kbits/s speed=0.0964x elapsed=0:00:26.96    \nframe=  159 fps=5.8 q=56.0 size=       1KiB time=00:00:02.63 bitrate=   2.2kbits/s speed=0.0958x elapsed=0:00:27.47    \nframe=  170 fps=6.1 q=56.0 size=       1KiB time=00:00:02.81 bitrate=   2.0kbits/s speed=0.101x elapsed=0:00:27.99    \nframe=  173 fps=6.1 q=53.0 size=       1KiB time=00:00:02.86 bitrate=   2.0kbits/s speed= 0.1x elapsed=0:00:28.57    \nframe=  175 fps=6.0 q=55.0 size=       1KiB time=00:00:02.90 bitrate=   2.0kbits/s speed=0.0997x elapsed=0:00:29.07    \nframe=  184 fps=6.2 q=56.0 size=       1KiB time=00:00:03.03 bitrate=   1.9kbits/s speed=0.102x elapsed=0:00:29.60    \nframe=  189 fps=6.3 q=53.0 size=       1KiB time=00:00:03.13 bitrate=   1.8kbits/s speed=0.104x elapsed=0:00:30.16    \nframe=  191 fps=6.2 q=55.0 size=       1KiB time=00:00:03.16 bitrate=   1.8kbits/s speed=0.103x elapsed=0:00:30.67    \nframe=  201 fps=6.4 q=49.0 size=       1KiB time=00:00:03.31 bitrate=   1.7kbits/s speed=0.106x elapsed=0:00:31.21    \nframe=  209 fps=6.6 q=40.0 size=       1KiB time=00:00:03.46 bitrate=   1.6kbits/s speed=0.109x elapsed=0:00:31.76    \nframe=  209 fps=6.5 q=40.0 size=       1KiB time=00:00:03.46 bitrate=   1.6kbits/s speed=0.107x elapsed=0:00:32.28    \nframe=  221 fps=6.7 q=53.0 size=       1KiB time=00:00:03.63 bitrate=   1.6kbits/s speed=0.111x elapsed=0:00:32.79    \nframe=  225 fps=6.8 q=40.0 size=       1KiB time=00:00:03.73 bitrate=   1.5kbits/s speed=0.112x elapsed=0:00:33.33    \nframe=  229 fps=6.8 q=52.0 size=       1KiB time=00:00:03.76 bitrate=   1.5kbits/s speed=0.111x elapsed=0:00:33.85    \nframe=  241 fps=7.0 q=40.0 size=       1KiB time=00:00:04.00 bitrate=   1.4kbits/s speed=0.116x elapsed=0:00:34.37    \nframe=  241 fps=6.9 q=40.0 size=       1KiB time=00:00:04.00 bitrate=   1.4kbits/s speed=0.115x elapsed=0:00:34.89    \nframe=  247 fps=7.0 q=54.0 size=       1KiB time=00:00:04.10 bitrate=   1.4kbits/s speed=0.116x elapsed=0:00:35.41    \nframe=  257 fps=7.2 q=40.0 size=       1KiB time=00:00:04.26 bitrate=   1.3kbits/s speed=0.119x elapsed=0:00:35.94    \nframe=  257 fps=7.0 q=40.0 size=       1KiB time=00:00:04.26 bitrate=   1.3kbits/s speed=0.117x elapsed=0:00:36.47    \nframe=  265 fps=7.2 q=48.0 size=       1KiB time=00:00:04.40 bitrate=   1.3kbits/s speed=0.119x elapsed=0:00:36.98    \nframe=  273 fps=7.3 q=39.0 size=       1KiB time=00:00:04.53 bitrate=   1.3kbits/s speed=0.121x elapsed=0:00:37.50    \nframe=  273 fps=7.2 q=39.0 size=       1KiB time=00:00:04.53 bitrate=   1.3kbits/s speed=0.119x elapsed=0:00:38.02    \nframe=  285 fps=7.4 q=51.0 size=       1KiB time=00:00:04.73 bitrate=   1.2kbits/s speed=0.123x elapsed=0:00:38.55    \n[out#0/matroska @ 0000024cfdbe90c0] video:855KiB audio:0KiB subtitle:0KiB other streams:0KiB global headers:0KiB muxing overhead: 0.234368%\nframe=  300 fps=7.7 q=55.0 Lsize=     857KiB time=00:00:04.98 bitrate=1409.5kbits/s speed=0.128x elapsed=0:00:38.88    \n",
  "seconds": 39.40686917304993,
  "probe_out": {}
}